<svg width="1440" height="1380" viewBox="0 0 1440 1380" fill="none" xmlns="http://www.w3.org/2000/svg">
<g opacity="0.03" clip-path="url(#clip0_14_580)">
<path d="M720.292 1379.08C711.997 1371.6 704.753 1360.03 691.317 1340.64C677.647 1321.59 672.857 1298.11 670.403 1274.63C669.702 1268.08 668.884 1266.45 662.108 1269.48C624.253 1286.66 586.282 1284.09 546.09 1269.25C578.103 1250.67 607.078 1230.7 633.25 1202.65C618.645 1202.42 606.494 1202.19 594.577 1199.97C552.983 1192.02 520.503 1170.17 496.786 1135.36C467.81 1092.71 432.292 1057.08 387.895 1030.32C362.775 1015.13 335.786 1004.38 307.745 996.089C252.015 979.616 214.277 945.032 197.92 888.484C197.803 887.9 197.336 887.432 196.167 885.563C186.587 901.453 180.278 918.16 174.085 934.751C167.776 951.809 164.388 969.568 159.714 988.261C139.502 963.492 126.183 936.737 123.379 905.542C122.678 897.13 122.678 888.601 123.379 880.305C124.196 872.477 121.626 870.725 114.382 872.36C76.7611 880.889 40.5421 874.347 4.9072 861.612C-1.2851 859.392 -1.6356 857.873 1.9863 852.498C23.8346 820.135 50.59 793.613 87.0427 778.191C93.5855 775.504 91.4825 773.167 88.2111 769.428C61.3388 739.635 51.6415 703.883 52.1088 664.743C52.1088 663.809 52.3425 662.874 52.5762 661.822C52.5762 661.589 53.0435 661.355 54.3287 660.187C80.7336 683.904 109.125 705.285 143.357 721.175C138.217 705.052 133.894 690.33 132.725 674.791C129.921 637.637 139.619 603.989 161.934 574.663C192.428 534.472 216.38 491.476 229.115 442.288C237.761 408.639 238.929 374.523 238.695 340.174C238.462 303.721 248.626 270.54 271.643 241.915C282.275 228.713 295.127 217.964 310.666 207.682C273.512 200.205 237.878 200.555 200.49 204.878C212.174 185.834 225.96 170.879 242.668 158.611C258.324 147.161 275.732 139.684 294.777 135.945C300.268 134.893 301.319 133.491 298.282 128.584C277.719 94.702 271.76 57.5482 272.928 18.6419C273.162 11.515 274.914 10.814 281.457 12.6833C319.546 23.7827 353.428 41.6586 379.599 72.2695C380.417 73.2042 381.469 73.9052 382.988 75.1904C403.551 35.8168 436.498 13.0338 480.662 1.11659C465.357 35.5831 453.673 69.115 449.233 106.853C463.955 95.403 478.092 86.4067 493.865 80.448C525.293 68.5308 557.073 67.5961 589.086 77.0598C617.944 85.5888 646.218 96.104 676.245 99.4922C685.592 100.544 694.939 101.011 704.286 102.296C706.856 102.647 727.887 102.647 739.921 101.946C775.789 99.9596 809.788 89.7949 843.788 78.9292C894.494 62.689 941.345 70.1665 983.99 102.647C985.392 103.698 986.444 105.801 989.365 104.166C985.159 68.5308 973.592 34.8821 958.17 0.766083C1001.87 12.8002 1035.28 35.3495 1056.31 75.8914C1084.94 40.7239 1122.32 21.6797 1165.2 10.814C1167.89 51.7064 1162.75 90.6127 1141.95 126.131C1137.75 133.141 1138.21 134.777 1146.51 136.529C1186.7 145.058 1215.68 169.36 1238.58 204.528C1201.07 200.438 1165.2 199.854 1128.63 207.332C1135.99 212.94 1142.77 217.496 1148.85 222.754C1184.13 253.715 1200.37 293.206 1200.25 339.706C1200.25 371.836 1200.6 403.732 1208.2 435.278C1210.18 442.639 1211.7 450.583 1215.44 460.631C1219.41 470.913 1222.8 481.311 1226.89 491.593C1239.86 524.19 1261.59 551.296 1280.99 580.037C1307.04 618.71 1313.82 660.888 1300.5 705.986C1299.68 708.557 1296.88 711.945 1299.1 713.931C1301.67 716.268 1305.87 715.333 1309.26 714.282C1311.36 713.581 1313.35 712.296 1315.34 711.127C1335.78 699.677 1354.83 686.358 1372.35 670.819C1376.56 667.08 1381 663.692 1386.61 659.018C1387.77 680.984 1385.44 700.378 1379.6 719.306C1373.99 737.883 1371.07 739.635 1367.09 747.229C1361.37 757.16 1353.89 766.04 1345.36 775.27C1385.67 790.692 1414.18 818.149 1436.85 852.382C1438.6 855.069 1443.62 857.99 1436.14 860.677C1402.5 872.828 1368.26 879.721 1332.39 873.879C1326.79 872.945 1319.31 868.739 1316.27 871.893C1313.47 874.931 1315.92 882.876 1316.27 888.601C1317.56 926.339 1303.42 958.235 1279.35 988.378C1271.87 950.991 1260.89 916.524 1242.55 883.81C1239.28 895.377 1236.12 905.775 1231.21 915.59C1210.07 958.468 1174.9 983.588 1129.8 996.44C1077.23 1011.39 1031.31 1038.27 991.585 1075.89C970.788 1095.63 954.781 1119.23 937.49 1141.9C910.851 1176.95 875.684 1197.28 831.637 1201.14C823.575 1201.84 815.513 1201.95 806.05 1202.42C831.87 1229.99 860.962 1250.44 893.209 1268.9C876.502 1275.33 860.846 1278.72 843.671 1281.17C830.351 1283.51 788.174 1274.04 780.346 1271.7C773.336 1270.19 769.597 1269.6 768.428 1279.07C764.573 1312.25 750.903 1341.69 730.924 1368.33C728.588 1371.37 725.784 1375.1 720.643 1378.73M688.863 1124.61C681.97 1128.11 675.31 1132.32 668.067 1134.89C630.679 1148.44 598.316 1136.41 568.406 1113.86C548.193 1098.67 533.238 1078.58 518.283 1058.71C481.246 1009.53 434.512 973.774 376.445 952.977C356.7 945.967 336.604 939.424 318.027 929.493C284.846 911.734 258.791 887.9 251.08 848.76C248.276 834.622 250.613 820.836 253.3 806.816C237.761 822.238 224.909 839.646 212.524 857.405C207.267 865 206.098 872.244 208.201 881.006C221.053 933.465 253.767 967.465 304.824 982.77C361.957 999.945 413.014 1026.93 456.243 1068.29C477.157 1088.39 493.164 1112.34 510.806 1135.12C543.286 1176.95 586.048 1195.76 639.208 1189.34C643.181 1188.87 646.919 1188.17 649.607 1184.9C664.562 1166.2 679.049 1147.16 689.915 1125.66C690.149 1124.96 690.382 1124.37 690.616 1123.67C690.032 1123.91 689.448 1124.26 688.863 1124.49V1124.61ZM750.085 1124.49C749.501 1123.79 748.917 1122.74 748.099 1124.02C748.099 1124.14 748.8 1124.96 749.151 1125.31C757.095 1142.13 769.246 1156.15 778.827 1171.81C788.057 1186.77 800.792 1191.21 817.032 1190.97C866.687 1190.15 905.71 1169.12 933.401 1128.35C967.166 1078.58 1009.69 1038.97 1062.97 1010.81C1088.91 997.141 1117.07 989.547 1144.29 979.382C1190.09 962.324 1218.71 929.493 1230.86 882.058C1233.2 872.711 1232.15 864.766 1226.31 856.588C1216.49 842.918 1206.68 829.248 1195.81 816.396C1193.59 813.709 1191.96 809.62 1186.93 810.087C1186.93 811.723 1186.7 813.008 1186.93 814.293C1195.46 855.536 1179.11 886.848 1148.03 912.318C1125.6 930.778 1098.72 940.592 1071.73 949.706C1010.4 970.502 960.156 1006.14 921.366 1058.13C908.748 1074.95 896.013 1091.78 880.24 1105.92C846.592 1136.06 798.923 1156.27 750.085 1124.49ZM1008.76 505.613C1021.14 503.51 1033.53 501.407 1045.91 499.187C1074.19 493.93 1102.34 488.438 1130.74 483.414C1137.63 482.129 1140.08 479.792 1137.4 472.432C1134.94 465.538 1133.89 458.061 1132.37 450.7C1126.06 419.155 1127.23 386.908 1124.66 355.129C1122.56 328.607 1116.13 303.487 1099.89 281.756C1068.11 239.111 1006.77 239.228 975.345 281.99C953.847 311.199 932.816 340.641 911.319 369.85C907.463 375.108 907.813 377.444 913.772 380.365C929.428 388.076 946.486 392.633 962.259 399.877C983.99 409.808 1001.17 424.062 1008.99 447.546C1015.3 466.824 1012.85 485.751 1007.94 504.795C1007.71 505.263 1007.47 505.613 1007.24 506.08C1007.71 505.964 1008.29 505.847 1008.76 505.613ZM429.955 505.847C430.656 506.548 431.474 506.898 432.059 505.847C432.175 505.613 431.474 504.912 431.241 504.445C431.124 503.51 431.007 502.459 430.773 501.524C417.805 452.219 434.278 418.337 480.896 398.124C495.383 391.815 510.806 387.609 524.943 380.482C531.252 377.328 531.836 374.991 527.513 369.266C506.717 341.225 486.387 312.834 465.824 284.56C461.267 278.251 456.828 271.942 450.519 267.151C411.262 237.475 361.723 246.238 335.085 287.715C320.13 311.082 315.34 337.136 313.938 364.359C312.068 401.396 312.302 438.783 301.086 474.769C299.099 481.078 302.721 481.895 307.161 482.713C348.054 490.424 389.063 498.019 430.072 505.73L429.955 505.847ZM837.245 624.435C854.069 614.854 863.766 601.886 859.677 583.192C854.653 560.409 837.595 553.399 814.929 555.035C823.458 535.406 822.407 518.348 805.232 506.08C787.94 493.696 771.583 498.72 756.161 512.506C751.721 491.827 740.622 478.157 719.474 478.274C698.678 478.39 687.695 491.943 683.606 511.572C660.005 497.318 649.723 495.565 635.937 504.912C617.243 517.53 615.958 535.056 624.37 555.385C604.041 553.282 588.502 558.89 581.491 577.818C573.547 598.965 584.179 613.452 601.821 624.552C599.484 626.188 598.199 627.122 596.914 628.057C581.375 639.04 575.766 653.06 580.557 668.949C585.347 684.722 597.965 693.835 616.776 693.719C625.655 693.719 623.319 697.457 621.683 702.481C614.673 724.213 626.239 744.075 648.205 748.982C662.108 752.136 672.623 745.477 683.723 736.597C687.812 757.861 699.612 771.298 721.227 770.713C741.673 770.129 752.072 756.459 756.278 736.48C771.583 750.033 787.94 755.408 805.232 743.14C822.991 730.639 823.224 713.23 815.396 693.835C837.011 695.588 853.368 689.396 859.327 667.898C864.818 648.27 854.887 635.067 837.478 624.552L837.245 624.435ZM556.372 888.834C537.795 908.346 519.452 927.507 501.342 946.785C490.243 958.585 479.494 970.619 468.394 982.42C465.59 985.457 464.305 987.794 468.394 991.066C499.005 1014.67 521.555 1045.63 545.506 1075.3C564.083 1098.32 585.698 1117.48 614.906 1126.01C665.379 1140.62 714.217 1103.81 714.217 1051.35C714.217 1017 714.217 982.77 714.217 948.42C714.217 935.101 713.516 934.283 700.547 937.321C684.774 940.943 669.352 945.85 653.579 949.238C626.006 955.197 601.003 950.64 580.089 929.96C568.523 918.51 561.512 904.607 556.372 889.068V888.834ZM742.841 314.236C744.477 313.418 745.646 312.951 746.58 312.367C788.641 284.326 826.379 288.883 859.794 326.387C870.543 338.421 880.708 351.04 890.989 363.541C895.663 369.266 898.583 369.032 903.14 362.606C923.703 333.514 944.85 304.773 965.764 276.031C997.193 232.919 978.966 174.501 928.61 156.975C900.219 147.044 871.828 149.965 843.554 157.56C806.4 167.491 769.714 179.642 730.691 180.343C724.615 180.343 726.251 184.665 726.601 187.937C727.653 197.634 728.821 207.215 730.106 216.795C734.312 249.042 738.519 281.289 742.841 314.236ZM920.198 861.027C937.723 893.157 954.431 923.885 971.255 954.496C974.994 961.272 979.2 967.815 982.588 974.825C985.159 980.2 987.612 978.681 991.468 976.227C1008.88 964.31 1027.8 955.08 1047.32 947.252C1070.68 937.788 1095.1 930.895 1117.42 918.978C1140.2 906.827 1159.59 891.054 1170.69 866.986C1192.78 819.2 1161.58 775.621 1130.5 764.171C1094.4 750.968 1057.36 740.336 1020.79 728.185C1013.78 725.848 1012.73 728.185 1011.68 734.377C1008.76 751.435 1009.81 768.61 1008.29 785.668C1005.25 819.784 986.21 846.072 955.015 856.588C944.149 860.21 933.05 861.261 920.198 861.144V861.027ZM696.224 314.587C698.327 298.58 700.43 283.976 702.299 269.255C705.688 242.616 708.842 215.977 712.581 189.456C713.633 182.095 711.296 179.992 703.935 179.992C694.588 179.992 685.242 178.356 676.011 177.188C646.452 173.216 618.295 163.051 589.436 156.041C561.162 149.264 533.005 147.512 505.548 158.962C455.309 179.875 447.364 235.372 468.979 269.021C490.126 301.969 514.778 332.579 537.561 364.359C541.3 369.616 543.52 368.214 547.142 364.592C556.839 355.012 564.667 343.796 573.313 333.397C591.072 311.783 611.168 294.374 641.545 294.608C661.874 294.725 679.166 302.436 696.341 314.587H696.224ZM417.805 550.712C378.314 532.135 339.992 514.142 301.67 495.916C296.646 493.462 294.66 494.631 292.907 499.771C286.598 518.231 277.719 535.523 267.32 551.88C256.571 568.821 245.238 585.412 234.606 602.353C218.717 627.473 208.435 654.345 210.889 684.839C215.445 742.673 273.98 763.586 308.68 752.137C343.38 740.57 378.08 729.353 412.897 718.488C421.426 715.801 422.011 712.412 417.688 705.636C407.757 690.097 397.592 674.674 388.712 658.551C371.538 627.356 375.043 596.161 397.358 569.172C402.966 562.395 410.093 557.254 417.805 550.712ZM518.634 861.378C461.034 861.144 431.007 825.86 430.072 774.569C429.839 761.367 429.488 748.164 427.502 734.962C426.334 726.783 423.413 726.666 416.87 728.769C383.104 739.986 349.339 750.851 315.456 761.834C263.932 778.775 244.888 837.543 276.784 881.474C293.375 904.257 316.391 918.394 342.095 928.325C378.898 942.579 416.753 954.262 449.467 977.279C453.79 980.317 454.841 977.279 456.477 974.475C464.305 960.338 472.484 946.317 480.195 932.18C492.813 909.047 505.315 885.68 518.517 861.378H518.634ZM1021.85 550.361C1022.9 551.646 1023.36 552.581 1024.18 553.165C1065.31 586.113 1072.08 623.384 1044.98 668.365C1037.5 680.867 1029.56 693.134 1021.61 705.285C1016.94 712.412 1017.87 715.917 1026.64 718.605C1059.7 728.769 1092.65 739.401 1125.36 750.501C1137.98 754.824 1150.36 755.992 1163.45 754.006C1199.08 748.748 1225.72 720.123 1228.29 684.372C1230.63 651.307 1218.25 622.916 1200.72 596.161C1180.16 564.849 1158.08 534.238 1145.81 498.252C1144.41 494.163 1142.54 493.696 1138.8 495.448C1100.01 513.792 1061.1 531.901 1021.96 550.361H1021.85ZM882.694 888.601C881.409 892.339 880.474 895.494 879.306 898.415C868.907 923.301 852.55 941.761 825.678 949.005C809.321 953.444 792.964 951.225 776.841 947.135C763.054 943.747 749.384 940.008 735.598 936.62C728.237 934.751 725.433 937.204 725.55 945.383C726.017 982.303 725.55 1019.22 725.783 1056.03C726.134 1100.54 770.415 1136.41 814.111 1128.23C844.605 1122.51 867.973 1105.33 887.601 1082.55C914.707 1050.89 937.957 1015.83 971.839 990.365C975.111 987.911 974.76 986.158 972.19 983.471C966.115 977.162 960.39 970.619 954.314 964.31C930.596 939.19 906.879 914.071 882.811 888.601H882.694ZM235.424 751.085C225.61 742.439 216.847 733.56 210.772 722.343C194.181 691.732 196.868 660.771 208.318 629.459C217.782 603.638 234.489 581.907 249.444 559.241C276.55 518.348 294.66 474.184 298.749 424.996C301.086 397.657 301.67 370.084 304.474 342.744C307.161 316.222 315.924 291.687 333.332 270.89C351.559 249.159 375.043 238.059 406.472 238.41C382.403 227.077 360.321 219.483 337.655 213.173C331.463 211.421 326.556 212.239 321.181 215.276C289.986 232.451 269.073 258.038 257.389 291.687C249.094 315.872 250.028 340.758 250.028 365.644C250.028 427.333 233.321 484.466 201.308 537.042C190.91 554.217 178.175 569.873 167.309 586.697C139.502 629.693 135.763 674.674 156.91 721.525C158.663 725.264 160.299 729.12 164.738 730.989C187.521 740.102 211.005 747.229 235.424 751.202V751.085ZM1203.17 751.319C1226.42 747.58 1248.51 740.803 1270.12 732.742C1276.08 730.522 1279.82 727.017 1282.39 721.292C1304.59 671.637 1299.56 624.318 1267.67 581.089C1237.41 539.963 1212.52 496.85 1199.44 447.078C1189.62 409.691 1189.15 371.719 1188.57 333.514C1187.75 287.247 1168.01 250.21 1130.39 222.754C1117.77 213.524 1105.15 209.318 1090.19 216.445C1085.64 218.665 1080.26 219.483 1075.47 221.118C1068.46 223.572 1061.45 226.142 1054.56 228.946C1048.02 231.517 1041.71 234.437 1035.28 237.125C1071.15 238.293 1096.97 254.884 1115.31 284.093C1122.44 295.426 1127.23 307.693 1130.74 320.662C1137.63 346.95 1137.51 373.822 1138.45 400.695C1140.08 444.274 1149.78 485.751 1169.53 524.774C1182.73 550.829 1200.6 573.962 1215.79 598.848C1228.06 618.944 1237.29 640.325 1239.51 663.926C1242.9 699.21 1232.5 729.003 1203.29 751.435L1203.17 751.319ZM449 205.813C449.701 204.761 450.285 204.06 450.635 203.242C466.642 158.728 500.875 141.553 545.389 139.567C575.416 138.165 603.573 147.629 631.731 155.807C680.218 169.944 728.938 174.033 778.36 162.817C805.465 156.742 832.104 148.33 859.21 142.605C921.366 129.402 965.063 150.9 990.183 205.696C993.688 181.044 993.104 156.508 992.636 131.973C992.636 127.299 990.533 124.145 987.379 120.99C973.943 107.32 958.17 97.506 940.411 90.7296C905.009 77.4103 870.076 80.7985 835.142 93.4168C782.799 112.227 729.055 118.069 673.675 110.708C643.998 106.736 615.958 96.6882 587.45 88.3929C537.211 74.0221 492.229 83.9531 453.206 119.354C448.649 123.56 446.312 128.234 446.196 134.66C445.845 158.261 445.611 181.745 448.766 205.813H449ZM953.847 502.809C953.73 487.036 945.902 472.432 929.662 462.267C919.614 455.958 908.515 452.687 897.065 450.467C867.271 444.625 845.073 428.618 830.235 401.98C824.393 391.465 817.5 381.767 808.153 373.822C789.693 358.167 761.185 358.283 742.958 373.939C739.687 376.743 736.883 379.781 736.416 384.338C733.611 410.042 730.924 435.745 728.003 461.449C727.536 465.655 728.704 468.109 733.027 469.277C744.244 472.198 752.656 479.208 758.731 488.789C761.418 493.112 763.638 493.112 768.078 491.593C801.259 480.493 830.936 501.758 831.052 536.808C831.052 541.949 832.221 544.403 837.362 545.571C847.877 547.908 856.289 554.1 862.364 562.863C865.753 567.77 868.674 567.77 873.581 565.433C893.209 556.32 912.604 546.389 932.933 538.911C949.29 532.836 953.73 521.152 954.081 502.692L953.847 502.809ZM661.991 362.256C649.84 361.438 638.273 367.163 628.109 376.51C619.112 384.688 613.037 395.087 606.845 405.368C593.175 428.151 573.897 443.106 547.726 448.948C537.328 451.285 526.929 453.738 517.232 458.178C495.617 468.109 483.466 486.569 485.452 508.885C486.27 518.582 486.854 529.448 497.72 534.588C520.62 545.22 543.637 555.502 566.536 566.017C570.626 567.887 573.547 568.237 576.351 563.797C582.426 554.45 591.189 548.492 601.938 545.688C606.962 544.403 608.13 541.949 608.13 536.808C608.13 501.991 637.923 480.727 671.221 491.71C675.661 493.229 677.881 493.112 680.568 488.789C686.176 479.676 694.121 473.016 704.519 469.978C710.478 468.226 711.646 465.071 711.062 459.346C708.375 437.264 704.753 415.065 703.935 392.867C703.351 377.094 694.121 370.902 682.087 365.644C676.362 363.074 670.286 362.373 661.991 362.256ZM796.586 878.553C822.64 878.903 843.203 862.546 848.227 838.478C849.045 834.856 848.695 831.585 846.825 828.313C833.973 805.881 821.121 783.448 808.62 760.782C806.4 756.81 804.414 756.109 800.325 757.628C789.926 761.366 779.294 761.6 769.13 757.394C763.872 755.174 761.535 756.109 758.264 760.665C738.285 788.706 701.248 788.706 681.386 760.665C677.998 755.992 675.544 755.408 670.403 757.394C660.472 761.25 650.074 761.717 640.143 757.745C635.002 755.642 632.899 757.16 630.446 761.483C618.178 783.565 605.676 805.414 593.175 827.379C591.422 830.533 590.137 833.454 590.955 837.427C595.629 861.728 616.542 878.67 641.311 878.67C654.28 878.67 666.314 874.814 677.647 869.439C705.805 856.12 733.611 856.237 761.769 869.439C773.219 874.814 785.136 879.137 796.703 878.67L796.586 878.553ZM498.889 751.669C498.889 755.525 498.655 759.497 498.889 763.353C500.992 794.431 524.826 814.994 555.671 812.541C559.76 812.19 562.915 811.022 565.835 807.867C582.777 789.173 599.718 770.48 616.776 751.903C619.93 748.515 620.631 745.944 617.594 741.972C610.7 732.975 607.312 722.577 608.13 711.127C608.48 706.22 606.611 704.584 602.054 703.182C568.406 692.2 557.423 657.149 579.038 628.758C581.842 625.136 581.725 623.384 578.804 620.112C571.21 611.583 567.588 601.068 568.055 589.735C568.172 584.594 566.77 583.075 562.097 582.14C536.393 577.117 510.806 571.742 485.219 566.368C482.064 565.667 479.611 566.368 477.04 567.653C455.543 579.103 445.495 604.923 453.323 628.174C457.178 639.39 463.838 648.854 471.666 657.616C486.27 674.09 497.837 692.083 500.174 714.749C501.459 727.134 498.538 739.285 499.005 751.552L498.889 751.669ZM887.25 812.657C913.538 812.774 932.466 798.053 938.541 773.868C941.813 761.016 940.878 748.047 939.593 735.195C936.789 707.739 944.85 684.255 962.843 663.692C971.489 653.761 980.135 643.596 985.159 630.978C994.506 607.494 985.159 580.388 963.194 568.12C960.273 566.485 957.702 565.667 954.081 566.368C928.844 571.742 903.491 576.883 878.137 582.024C873.814 582.842 871.478 584.127 871.594 589.384C871.594 600.717 868.323 611.116 860.729 619.762C857.457 623.5 858.041 625.72 860.729 629.459C881.642 658.084 870.777 692.317 837.245 703.299C832.338 704.935 830.585 706.921 830.936 712.062C831.753 722.811 828.599 732.742 822.173 741.154C818.668 745.827 819.135 748.515 822.874 752.604C839.231 770.129 855.471 787.655 871.361 805.53C876.151 810.905 881.292 813.592 887.017 812.657H887.25ZM580.907 847.124C577.168 859.625 566.069 866.986 566.653 879.02C568.172 913.954 605.443 944.214 640.26 939.775C654.747 937.905 668.768 934.05 682.671 929.844C707.557 922.249 732.326 922.483 757.212 929.844C766.793 932.648 776.49 935.335 786.188 937.555C829.534 947.135 864.935 923.651 872.646 880.422C873.113 877.852 873.931 875.515 872.295 872.945C867.388 865 862.715 856.938 857.574 848.292C856.172 850.979 855.354 852.615 854.42 854.368C841.684 878.903 821.939 891.171 793.899 889.886C778.009 889.068 763.872 882.525 749.501 876.683C730.34 868.972 711.296 868.154 691.901 875.866C682.321 879.721 672.623 883.46 662.809 886.498C640.377 893.274 619.346 891.054 600.652 875.632C592.007 868.505 586.632 858.924 580.674 847.007L580.907 847.124ZM973.242 562.629C977.564 565.784 980.135 567.186 982.121 569.172C1000.46 587.865 1005.02 613.102 994.622 637.17C989.014 650.139 980.135 660.888 971.022 671.403C954.898 689.98 947.654 711.127 950.926 735.896C952.094 745.126 951.977 754.707 951.51 764.054C949.991 793.847 931.297 816.046 902.556 822.822C898.7 823.757 894.728 824.107 889.704 824.925C896.48 832.519 902.439 839.296 908.398 846.072C909.917 847.825 911.669 848.993 914.123 849.227C949.641 853.316 985.509 838.128 994.506 798.637C997.66 784.967 998.361 771.181 998.478 757.16C998.478 732.274 1004.67 709.258 1018.57 688.344C1025.7 677.595 1032.94 666.846 1039.37 655.63C1057.95 623.033 1051.05 589.034 1021.85 565.55C1012.73 558.189 1003.85 553.516 991.935 558.54C987.262 560.526 981.887 560.876 973.242 562.629ZM463.955 562.278C454.374 560.059 446.196 558.306 438.134 556.32C435.096 555.502 432.526 555.853 429.839 557.371C401.448 573.261 376.678 607.377 396.774 649.438C402.382 661.238 409.626 671.987 417.104 682.502C433.11 705.168 441.055 730.171 440.821 757.978C440.821 766.975 441.873 776.088 442.457 785.084C444.794 818.499 464.422 841.165 497.019 848.292C521.321 853.55 538.496 845.488 547.96 824.341C514.194 820.953 494.449 802.843 488.373 769.428C486.504 759.147 486.854 748.748 488.257 738.467C491.528 713.347 485.569 691.031 468.628 671.87C461.735 664.159 455.075 656.214 449.701 647.218C438.952 629.342 435.447 610.648 443.041 590.553C447.13 579.687 454.374 571.041 463.955 562.278ZM740.505 360.386C742.725 361.087 744.127 359.452 745.762 358.634C771.233 345.548 796.235 348.703 817.733 367.513C827.664 376.159 834.674 387.142 841.1 398.358C853.602 420.206 872.062 433.525 896.597 438.783C904.192 440.419 911.786 442.288 919.03 444.859C943.682 453.738 960.273 469.745 964.712 496.617C966.231 505.613 964.245 514.493 963.194 524.307C972.19 520.451 980.135 517.063 988.08 513.558C990.183 512.623 991.935 511.221 992.987 509.118C1007.01 480.961 1004.79 443.223 978.149 422.543C964.245 411.794 948.239 405.835 931.998 400.344C906.061 391.581 884.68 376.743 868.206 354.778C860.261 344.146 852.083 333.631 842.385 324.518C827.08 310.03 809.204 304.072 788.174 306.525C755.693 310.264 737.701 330.36 740.388 360.386H740.505ZM698.444 360.737C699.495 348.235 697.626 331.645 694.238 328.373C669.118 303.955 630.679 297.996 604.742 317.858C593.525 326.387 584.179 336.669 576.117 348.002C557.657 373.939 533.939 392.283 503.328 401.746C494.682 404.433 486.27 407.938 478.209 411.911C447.948 426.515 435.797 447.896 438.251 481.428C440.12 506.665 449.35 517.063 474.587 522.437C476.222 520.334 475.405 518.115 475.054 516.012C470.848 488.321 481.831 465.305 505.899 451.285C517.232 444.742 529.733 441.353 542.468 438.666C566.653 433.526 584.996 420.674 597.498 399.176C601.587 392.166 606.027 385.389 610.934 378.963C626.123 359.101 645.517 348.235 671.338 351.156C681.152 352.208 689.681 356.764 698.678 360.62L698.444 360.737ZM1186.12 807.867C1186.12 807.867 1186.58 807.517 1186.58 807.283C1186.58 807.049 1186.35 806.932 1186.12 806.699C1185.88 806.932 1185.77 807.283 1185.53 807.517C1185.65 807.517 1185.88 807.75 1186 807.867H1186.12Z" fill="#AB7B3D"/>
<path d="M1008.76 505.613C1008.76 505.613 1007.71 505.847 1007.24 506.081C1007.47 505.613 1007.71 505.263 1007.94 504.796C1008.29 505.029 1008.53 505.38 1008.76 505.613Z" fill="#AB7B3D"/>
<path d="M1186.12 807.867C1186.12 807.867 1185.77 807.633 1185.65 807.516C1185.88 807.283 1186 806.932 1186.23 806.698C1186.35 806.932 1186.7 807.166 1186.7 807.283C1186.7 807.516 1186.35 807.633 1186.23 807.867H1186.12Z" fill="#AB7B3D"/>
<path d="M431.241 504.445C431.241 504.445 432.175 505.613 432.058 505.847C431.474 506.898 430.656 506.431 429.955 505.847C430.423 505.379 430.773 504.912 431.241 504.445Z" fill="#AB7B3D"/>
<path d="M688.863 1124.61C689.447 1124.38 690.031 1124.02 690.616 1123.79C690.382 1124.49 690.148 1125.08 689.915 1125.78C689.564 1125.43 689.214 1125.08 688.863 1124.73V1124.61Z" fill="#AB7B3D"/>
<path d="M749.151 1125.43C749.151 1125.43 747.982 1124.26 748.099 1124.14C749.034 1122.74 749.501 1123.79 750.085 1124.49C749.735 1124.84 749.501 1125.08 749.151 1125.43Z" fill="#AB7B3D"/>
</g>
<defs>
<clipPath id="clip0_14_580">
<rect width="1440" height="1378.19" fill="white" transform="translate(0 0.883057)"/>
</clipPath>
</defs>
</svg>
